<?xml version="1.0" encoding="UTF-8"?>
<svg width="600px" height="200px" viewBox="0 0 600 200" version="1.1" xmlns="http://www.w3.org/2000/svg" xmlns:xlink="http://www.w3.org/1999/xlink">
    <!-- Generator: Sketch 63.1 (92452) - https://sketch.com -->
    <g id="Desktop" stroke="none" stroke-width="1" fill="none" fill-rule="evenodd">
        <path d="M191.1,57 L191.1,45.032 L195.104,45.032 C200.824,45.032 205.884,41.996 205.884,35.748 C205.884,29.412 200.868,26.64 195.104,26.64 L185.336,26.64 L185.336,57 L191.1,57 Z M194.4,40.544 L191.056,40.544 L191.056,31.128 L194.268,31.128 C197.216,31.128 199.988,32.404 199.988,35.748 C199.988,39.048 197.436,40.544 194.4,40.544 Z M218.864,57.484 C225.376,57.484 230.392,53.172 230.392,46.44 C230.392,39.708 225.376,35.308 218.864,35.308 C212.308,35.308 207.292,39.708 207.292,46.44 C207.292,53.172 212.308,57.484 218.864,57.484 Z M218.864,52.82 C215.168,52.82 213.144,49.96 213.144,46.308 C213.144,42.656 215.168,39.84 218.864,39.84 C222.472,39.84 224.584,42.656 224.584,46.308 C224.584,49.96 222.472,52.82 218.864,52.82 Z M243.988,57 L248.696,42.524 L253.932,57 L258.992,57 L266.032,35.704 L260.444,35.704 L256.352,50.576 L251.116,35.704 L246.716,35.704 L241.656,50.928 L237.212,35.704 L231.624,35.704 L238.444,57 L243.988,57 Z M279.012,57.484 C284.204,57.484 287.416,55.284 288.604,54.052 L286.404,51.016 C285.392,51.896 282.84,53.172 279.98,53.172 C276.812,53.172 274.172,51.5 273.644,48.156 L289.308,48.156 C289.308,48.156 289.396,46.396 289.396,45.296 C289.396,39.62 285.436,35.308 278.88,35.308 C272.808,35.308 267.836,39.884 267.836,46.704 C267.836,53.568 272.588,57.484 279.012,57.484 Z M283.764,44.504 L273.556,44.504 C273.732,41.776 275.492,39.488 278.836,39.488 C282.796,39.488 283.676,42.172 283.764,44.504 Z M299.12,57 L299.12,46.528 C299.12,44.9 299.384,43.448 299.912,42.392 C300.704,41.028 301.98,40.324 303.652,40.324 C304.4,40.324 305.368,40.412 305.984,40.588 L306.248,40.588 L306.644,35.704 C306.644,35.704 305.852,35.308 304.4,35.308 C302.112,35.308 300,36.848 299.164,39.136 L299.032,39.136 L299.12,35.704 L293.532,35.704 L293.532,57 L299.12,57 Z M319.36,57.484 C324.552,57.484 327.764,55.284 328.952,54.052 L326.752,51.016 C325.74,51.896 323.188,53.172 320.328,53.172 C317.16,53.172 314.52,51.5 313.992,48.156 L329.656,48.156 C329.656,48.156 329.744,46.396 329.744,45.296 C329.744,39.62 325.784,35.308 319.228,35.308 C313.156,35.308 308.184,39.884 308.184,46.704 C308.184,53.568 312.936,57.484 319.36,57.484 Z M324.112,44.504 L313.904,44.504 C314.08,41.776 315.84,39.488 319.184,39.488 C323.144,39.488 324.024,42.172 324.112,44.504 Z M342.856,57.484 C345.804,57.484 348.444,56.384 350.16,53.656 L350.292,53.656 L350.336,57 L355.66,57 L355.66,26.64 L350.072,26.64 L350.072,35.044 C350.072,36.54 350.072,37.684 350.116,38.652 L350.028,38.652 C348.532,36.364 346.112,35.308 343.252,35.308 C336.784,35.308 332.78,40.28 332.78,46.308 C332.78,52.644 336.608,57.484 342.856,57.484 Z M344.44,52.908 C340.788,52.908 338.5,50.004 338.5,46.308 C338.5,42.744 340.612,39.62 344.264,39.62 C347.872,39.62 350.204,42.744 350.204,46.308 C350.204,50.312 347.828,52.908 344.44,52.908 Z M382.104,57 C387.824,57 393.192,54.976 393.192,48.332 C393.192,44.46 390.596,41.908 386.68,41.028 L386.68,40.94 C388.66,40.148 391.388,37.992 391.388,34.296 C391.388,27.96 385.932,26.64 380.74,26.64 L371.016,26.64 L371.016,57 L382.104,57 Z M380.3,39.312 L376.736,39.312 L376.736,31.128 L380.564,31.128 C383.512,31.128 385.58,32.404 385.58,35.044 C385.58,38.476 383.292,39.312 380.3,39.312 Z M381.664,52.512 L376.736,52.512 L376.736,43.492 L381.4,43.492 C383.16,43.492 384.348,43.668 385.492,44.46 C386.636,45.252 387.384,46.396 387.384,48.068 C387.384,51.764 384.788,52.512 381.664,52.512 Z M401.332,65.404 C404.324,65.404 406.084,63.6 407.624,59.86 L417.524,35.704 L411.672,35.704 L406.128,50.796 L400.496,35.704 L394.6,35.704 L403.4,57.132 L402.476,59.332 C402.036,60.432 401.112,60.74 400.012,60.74 C398.956,60.74 397.46,60.212 397.46,60.212 L396.316,64.524 C396.316,64.524 398.296,65.404 401.332,65.404 Z" id="PoweredBy" fill="#AAAAAA" fill-rule="nonzero"></path>
        <path d="M55.668,168 L55.668,156.78 L47.088,156.384 L47.088,106.488 L47.352,106.488 L85.5,168 L100.944,168 L100.944,95.4 C100.944,92.848 102,91.484 104.112,91.308 L104.112,91.308 L108.864,90.912 L108.864,80.22 L76.656,80.22 L76.656,91.44 L85.368,91.836 L85.368,140.808 L85.104,140.808 L47.748,80.22 L23.988,80.22 L23.988,91.44 L31.512,91.836 L31.512,153.216 C31.512,155.504 30.368,156.736 28.08,156.912 L28.08,156.912 L23.328,157.308 L23.328,168 L55.668,168 Z M149.388,169.716 C154.756,169.716 159.53,168.88 163.71,167.208 C167.89,165.536 170.86,163.908 172.62,162.324 L172.62,162.324 L167.604,151.632 C162.148,155.504 156.692,157.44 151.236,157.44 C145.78,157.44 141.732,156.01 139.092,153.15 C136.452,150.29 135,146.528 134.736,141.864 C142.128,141.864 148.772,140.984 154.668,139.224 C158.188,138.168 161.18,136.804 163.644,135.132 C166.108,133.46 168.176,131.15 169.848,128.202 C171.52,125.254 172.356,121.844 172.356,117.972 C172.356,112.164 170.42,107.654 166.548,104.442 C162.676,101.23 157.44,99.624 150.84,99.624 C140.544,99.624 132.536,103.144 126.816,110.184 C121.096,117.224 118.236,125.936 118.236,136.32 C118.236,146.704 120.744,154.866 125.76,160.806 C130.776,166.746 138.652,169.716 149.388,169.716 Z M134.208,130.776 C134.472,125.32 135.924,120.634 138.564,116.718 C141.204,112.802 144.988,110.844 149.916,110.844 C155.196,110.844 157.836,113.528 157.836,118.896 C157.836,121.624 156.472,123.978 153.744,125.958 C151.016,127.938 148.024,129.236 144.768,129.852 C141.6,130.38 138.08,130.688 134.208,130.776 Z M218.82,168 L230.04,128.664 L230.436,128.664 L241.26,168 L260.268,168 L272.808,115.2 C273.424,113.264 274.612,112.208 276.372,112.032 L276.372,112.032 L280.728,111.768 L280.728,101.604 L254.196,101.604 L254.196,112.164 L260.928,112.56 L251.952,153.348 L251.688,153.348 L237.96,104.244 L225.156,104.244 L210.636,153.084 L210.372,153.084 L201.264,112.56 L208.656,112.164 L208.656,101.604 L178.428,101.604 L178.428,111.768 L182.256,112.032 C183.4,112.12 184.214,112.384 184.698,112.824 C185.182,113.264 185.644,114.1 186.084,115.332 L186.084,115.332 L199.416,168 L218.82,168 Z M313.332,169.716 C320.724,169.716 326.818,167.846 331.614,164.106 C336.41,160.366 338.808,155.196 338.808,148.596 C338.808,143.492 337.268,139.312 334.188,136.056 C333.044,134.736 331.35,133.504 329.106,132.36 C326.862,131.216 324.992,130.402 323.496,129.918 C322,129.434 319.712,128.774 316.632,127.938 C313.552,127.102 310.912,126.112 308.712,124.968 C307.304,124.176 306.27,123.23 305.61,122.13 C304.95,121.03 304.62,119.49 304.62,117.51 C304.62,115.53 305.522,113.858 307.326,112.494 C309.13,111.13 311.528,110.448 314.52,110.448 C317.512,110.448 320.064,110.844 322.176,111.636 C324.2,112.428 325.212,113.924 325.212,116.124 L325.212,116.124 L325.212,121.668 L337.092,120.744 L337.092,104.904 C329.876,101.384 322.594,99.624 315.246,99.624 C307.898,99.624 301.804,101.472 296.964,105.168 C292.124,108.864 289.704,114.122 289.704,120.942 C289.704,127.762 291.948,132.624 296.436,135.528 C298.724,136.936 300.814,138.014 302.706,138.762 C304.598,139.51 306.358,140.104 307.986,140.544 C309.614,140.984 311.286,141.424 313.002,141.864 C314.718,142.304 316.192,142.744 317.424,143.184 C318.656,143.624 319.91,144.46 321.186,145.692 C322.462,146.924 323.1,148.508 323.1,150.444 C323.1,155.812 319.404,158.496 312.012,158.496 C304.62,158.496 300.924,156.56 300.924,152.688 L300.924,152.688 L300.924,146.352 L289.044,147.276 L289.044,165.624 C294.5,168.352 302.596,169.716 313.332,169.716 Z M402.696,168 L402.696,156.78 L394.776,156.384 L398.736,144.768 L429.624,144.768 L432.396,152.952 C432.836,154.36 432.792,155.328 432.264,155.856 C431.736,156.384 430.724,156.736 429.228,156.912 L429.228,156.912 L424.212,157.308 L424.212,168 L458.268,168 L458.268,156.78 L450.744,156.384 L450.612,156.384 L423.684,80.22 L393.456,80.22 L393.456,90.912 L401.772,91.704 L380.52,153.216 C379.728,155.504 378.408,156.736 376.56,156.912 L376.56,156.912 L372.204,157.308 L372.204,168 L402.696,168 Z M426.456,132.624 L401.904,132.624 L414.18,95.004 L414.576,95.004 L426.456,132.624 Z M501.3,168 L501.3,156.78 L488.628,156.384 L488.628,137.244 L499.848,137.244 C510.144,137.244 518.416,134.67 524.664,129.522 C530.912,124.374 534.036,117.18 534.036,107.94 C534.036,98.7 531.286,91.77 525.786,87.15 C520.286,82.53 512.608,80.22 502.752,80.22 L502.752,80.22 L465,80.22 L465,91.44 L472.524,91.836 L472.524,153.216 C472.524,155.416 471.248,156.648 468.696,156.912 L468.696,156.912 L464.34,157.308 L464.34,168 L501.3,168 Z M498.132,124.44 L488.628,124.44 L488.628,93.024 L496.68,93.024 C503.896,93.024 509.154,94.058 512.454,96.126 C515.754,98.194 517.404,102.396 517.404,108.732 C517.404,119.204 510.98,124.44 498.132,124.44 L498.132,124.44 Z M575.352,168 L575.352,156.78 L567.828,156.384 L567.828,95.532 C567.828,92.98 569.104,91.572 571.656,91.308 L571.656,91.308 L576.012,90.912 L576.012,80.22 L544.068,80.22 L544.068,91.44 L551.592,91.836 L551.592,152.556 C551.592,154.14 551.284,155.218 550.668,155.79 C550.052,156.362 549.084,156.736 547.764,156.912 L547.764,156.912 L543.408,157.308 L543.408,168 L575.352,168 Z" id="NewsAPI" fill-opacity="0.85" fill="#000000" fill-rule="nonzero"></path>
    </g>
</svg>