<?xml version="1.0" encoding="UTF-8"?>
<svg width="613px" height="139px" viewBox="0 0 613 139" version="1.1" xmlns="http://www.w3.org/2000/svg" xmlns:xlink="http://www.w3.org/1999/xlink">
    <!-- Generator: Sketch 63.1 (92452) - https://sketch.com -->
    <title>Desktop HD Copy</title>
    <desc>Created with Sketch.</desc>
    <defs>
        <linearGradient x1="35.7076514%" y1="3.73205236%" x2="56.2886624%" y2="124.083383%" id="linearGradient-1">
            <stop stop-color="#FFDE03" offset="0%"></stop>
            <stop stop-color="#FFAA03" offset="100%"></stop>
        </linearGradient>
    </defs>
    <g id="Desktop-HD-Copy" stroke="none" stroke-width="1" fill="none" fill-rule="evenodd">
        <path d="M129.18374,100.948645 L129.18374,68.5477889 C129.18374,60.7104137 128.99187,52.299572 128.99187,52.299572 L162.569106,100.948645 L175.136585,100.948645 L175.136585,35 L162.952846,35 L162.953413,68.2423167 C162.964834,75.8175493 163.144715,83.0756063 163.144715,83.0756063 L130.239024,35 L117,35 L117,100.948645 L129.18374,100.948645 Z M209.673171,102 C220.993496,102 227.996748,97.2211127 230.586992,94.5449358 L225.790244,87.9500713 C223.58374,89.8616262 218.019512,92.6333809 211.78374,92.6333809 C204.876423,92.6333809 199.120325,89.0014265 197.969106,81.7375178 L232.121951,81.7375178 C232.121951,81.7375178 232.313821,77.914408 232.313821,75.5249643 C232.313821,63.1954351 223.679675,53.828816 209.385366,53.828816 C196.146341,53.828816 185.305691,63.7689016 185.305691,78.5834522 C185.305691,93.4935806 195.666667,102 209.673171,102 Z M220.034146,73.8045649 L197.777236,73.8045649 C198.160976,67.8787447 201.998374,62.9087019 209.289431,62.9087019 C217.923577,62.9087019 219.842276,68.7389444 220.034146,73.8045649 Z M262.149593,100.948645 L272.414634,69.5035663 L283.830894,100.948645 L294.863415,100.948645 L310.213008,54.6890157 L298.029268,54.6890157 L289.107317,86.9942939 L277.691057,54.6890157 L268.097561,54.6890157 L257.065041,87.7589158 L247.37561,54.6890157 L235.19187,54.6890157 L250.061789,100.948645 L262.149593,100.948645 Z M331.126829,102 C342.543089,102 349.546341,95.5007133 349.546341,86.7075606 C349.546341,80.0171184 345.900813,76.3851641 335.635772,73.0399429 L332.373984,71.9885877 C327.193496,70.363766 325.658537,68.7389444 325.658537,66.7318117 C325.658537,64.5335235 327.673171,63.0042796 331.702439,63.0042796 C335.923577,63.0042796 339.856911,64.9158345 342.543089,66.9229672 L347.819512,58.7988588 C343.982114,56.0271041 339.377236,53.828816 331.126829,53.828816 C322.204878,53.828816 314.530081,59.2767475 314.530081,67.6875892 C314.530081,74.4736091 318.079675,78.5834522 324.986992,80.8773181 L330.35935,82.6932953 C336.307317,84.700428 338.130081,86.0385164 338.130081,88.4279601 C338.130081,91.1041369 336.019512,92.8245364 331.414634,92.8245364 C327.481301,92.8245364 322.780488,90.721826 317.312195,86.5164051 L312.323577,94.831669 C316.065041,99.1326676 324.027642,102 331.126829,102 Z M391.373984,100.948645 L391.373984,74.1868759 L416.413008,74.1868759 L416.413008,63.9600571 L391.373984,63.9600571 L391.373984,45.4179743 L417.947967,45.4179743 L417.947967,35 L378.902439,35 L378.902439,100.948645 L391.373984,100.948645 Z M440.204878,100.948645 L440.204878,35 L428.021138,35 L428.021138,100.948645 L440.204878,100.948645 Z M465.627642,102 C472.534959,102 477.907317,98.9415121 479.826016,95.596291 L480.017886,100.948645 L491.817886,100.948645 L491.817886,74.4736091 C491.817886,60.232525 484.526829,53.828816 470.328455,53.828816 C462.269919,53.828816 455.746341,56.6005706 452.196748,58.703281 L455.938211,66.5406562 C457.952846,65.0114123 463.037398,62.7175464 469.177236,62.7175464 C475.604878,62.7175464 479.538211,65.489301 479.538211,71.4151213 L479.538211,72.657632 L468.409756,73.4222539 C458.81626,74.0912981 449.318699,77.8188302 449.318699,87.4721826 C449.318699,97.125535 456.609756,102 465.627642,102 Z M469.656911,93.6847361 C464.572358,93.6847361 461.598374,91.0085592 461.598374,87.0898716 C461.598374,83.171184 464.764228,80.9728959 471.287805,80.5905849 L479.634146,80.1126961 L479.634146,88.6191155 C478.003252,90.9129815 474.453659,93.6847361 469.656911,93.6847361 Z M518.58374,102 C530,102 537.003252,95.5007133 537.003252,86.7075606 C537.003252,80.0171184 533.357724,76.3851641 523.092683,73.0399429 L519.830894,71.9885877 C514.650407,70.363766 513.115447,68.7389444 513.115447,66.7318117 C513.115447,64.5335235 515.130081,63.0042796 519.15935,63.0042796 C523.380488,63.0042796 527.313821,64.9158345 530,66.9229672 L535.276423,58.7988588 C531.439024,56.0271041 526.834146,53.828816 518.58374,53.828816 C509.661789,53.828816 501.986992,59.2767475 501.986992,67.6875892 C501.986992,74.4736091 505.536585,78.5834522 512.443902,80.8773181 L517.81626,82.6932953 C523.764228,84.700428 525.586992,86.0385164 525.586992,88.4279601 C525.586992,91.1041369 523.476423,92.8245364 518.871545,92.8245364 C514.938211,92.8245364 510.237398,90.721826 504.769106,86.5164051 L499.780488,94.831669 C503.521951,99.1326676 511.484553,102 518.58374,102 Z M558.204878,100.948645 L558.204878,77.914408 C558.204878,70.1726106 560.795122,63.8644793 568.373984,63.8644793 C575.473171,63.8644793 576.720325,69.3124108 576.720325,76.1940086 L576.720325,100.948645 L589,100.948645 L589,73.5178317 C589,62.4308131 585.642276,53.828816 572.307317,53.828816 C565.59187,53.828816 560.891057,56.7917261 558.396748,61.6661912 L558.204878,61.6661912 L558.204878,35 L546.021138,35 L546.021138,100.948645 L558.204878,100.948645 Z" id="NewsFlash" fill-opacity="0.85" fill="#000000" fill-rule="nonzero"></path>
        <polygon id="Icon-Path" fill="url(#linearGradient-1)" fill-rule="nonzero" points="24 24 24 74.05 37.5 74.05 37.5 115 69 60.4 51 60.4 69 24"></polygon>
    </g>
</svg>